<mxfile host="app.diagrams.net" modified="2023-11-01T18:27:46.936Z" agent="Mozilla/5.0 (Macintosh; Intel Mac OS X 10_15_7) AppleWebKit/537.36 (KHTML, like Gecko) Chrome/118.0.0.0 Safari/537.36" version="22.0.8" etag="EdwO7gLJsisViIzZrjl3" type="github">
  <diagram name="PÃ¡gina-1" id="nVkRMQapMIJnzXLmdxf_">
    <mxGraphModel>
      <root>
        <mxCell id="0" />
        <mxCell id="1" parent="0" />
      </root>
    </mxGraphModel>
  </diagram>
</mxfile>
